{"title":"Ripper.Street.s04e06.Edmund.Reid.Did.This.PROPER.WebRip.mp4","uid":13742727,"size":1080983505,"categoryP":"video","categoryS":"hd___tv_shows","magnet":"?xt=urn:btih:55b882a3bdeef1afaf7ea225df5830630d850005&amp;dn=Ripper.Street.s04e06.Edmund.Reid.Did.This.PROPER.WebRip.mp4&amp;tr=udp%3A%2F%2Ftracker.leechers-paradise.org%3A6969&amp;tr=udp%3A%2F%2Fzer0day.ch%3A1337&amp;tr=udp%3A%2F%2Fopen.demonii.com%3A1337&amp;tr=udp%3A%2F%2Ftracker.coppersurfer.tk%3A6969&amp;tr=udp%3A%2F%2Fexodus.desync.com%3A6969","seeders":0,"leechers":1,"uploader":null,"files":1,"time":1457090567,"description":"General\r\nComplete name                  : C:UsersperecDesktopRipper.Street.s04e06.Edmund.Reid.Did.This.PROPER.WebRip.mp4\r\nFormat                         : MPEG-4\r\nFormat profile                 : Base Media\r\nCodec ID                       : isom (isom/iso2/avc1/mp41)\r\nFile size                      : 1.01 GiB\r\nDuration                       : 1h 3mn\r\nOverall bit rate mode          : Variable\r\nOverall bit rate               : 2 262 Kbps\r\nWriting application            : Lavf57.25.100\r\n\r\nVideo\r\nID                             : 1\r\nFormat                         : AVC\r\nFormat/Info                    : Advanced Video Codec\r\nFormat profile                 :   \r\nFormat settings, CABAC         : Yes\r\nFormat settings, ReFrames      : 4 frames\r\nCodec ID                       : avc1\r\nCodec ID/Info                  : Advanced Video Coding\r\nDuration                       : 1h 3mn\r\nBit rate                       : 2 157 Kbps\r\nWidth                          : 1 920 pixels\r\nHeight                         : 1 080 pixels\r\nDisplay aspect ratio           : 16:9\r\nFrame rate mode                : Variable\r\nFrame rate                     : 24.000 fps\r\nMinimum frame rate             : 23.810 fps\r\nMaximum frame rate             : 24.390 fps\r\nColor space                    : YUV\r\nChroma subsampling             : 4:2:0\r\nBit depth                      : 8 bits\r\nScan type                      : Progressive\r\nBits/(Pixel*Frame)             : 0.043\r\nStream size                    : 983 MiB (95%)\r\nWriting library                : x264 core 146 r2538 121396c\r\nEncoding settings              : cabac=1 / ref=1 / deblock=1:0:0 / analyse=0x3:0x113 / me=hex / subme=2 / psy=1 / psy_rd=1.00:0.00 / mixed_ref=0 / me_range=16 / chroma_me=1 / trellis=0 / 8x8dct=1 / cqm=0 / deadzone=21,11 / fast_pskip=1 / chroma_qp_offset=0 / threads=6 / lookahead_threads=2 / sliced_threads=0 / nr=0 / decimate=1 / interlaced=0 / bluray_compat=0 / constrained_intra=0 / bframes=3 / b_pyramid=2 / b_adapt=1 / b_bias=0 / direct=1 / weightb=1 / open_gop=0 / weightp=1 / keyint=250 / keyint_min=24 / scenecut=40 / intra_refresh=0 / rc_lookahead=10 / rc=crf / mbtree=1 / crf=22.0 / qcomp=0.60 / qpmin=0 / qpmax=69 / qpstep=4 / vbv_maxrate=6000 / vbv_bufsize=6000 / crf_max=0.0 / nal_hrd=none / filler=0 / ip_ratio=1.40 / aq=1:1.00\r\nColor range                    : Limited\r\nColor primaries                : BT.709\r\nTransfer characteristics       : sYCC\r\nMatrix coefficients            : BT.709\r\n\r\nAudio\r\nID                             : 2\r\nFormat                         : AAC\r\nFormat/Info                    : Advanced Audio Codec\r\nFormat profile                 : LC\r\nCodec ID                       : 40\r\nDuration                       : 1h 3mn\r\nBit rate mode                  : Variable\r\nBit rate                       : 98.1 Kbps\r\nMaximum bit rate               : 197 Kbps\r\nChannel(s)                     : 2 channels\r\nChannel positions              : Front: L R\r\nSampling rate                  : 48.0 KHz\r\nFrame rate                     : 46.875 fps (1024 spf)\r\nCompression mode               : Lossy\r\nStream size                    : 44.7 MiB (4%)\r\nDefault                        : Yes\r\nAlternate group                : 1","torrent":{"xt":"urn:btih:55b882a3bdeef1afaf7ea225df5830630d850005","amp;dn":"Ripper.Street.s04e06.Edmund.Reid.Did.This.PROPER.WebRip.mp4","amp;tr":["udp%3A%2F%2Ftracker.leechers-paradise.org%3A6969","udp%3A%2F%2Fzer0day.ch%3A1337","udp%3A%2F%2Fopen.demonii.com%3A1337","udp%3A%2F%2Ftracker.coppersurfer.tk%3A6969","udp%3A%2F%2Fexodus.desync.com%3A6969"],"infoHash":"55b882a3bdeef1afaf7ea225df5830630d850005","infoHashBuffer":{"type":"Buffer","data":[85,184,130,163,189,238,241,175,175,126,162,37,223,88,48,99,13,133,0,5]},"announce":[],"urlList":[]}}